# xmcd
#
# Track frame offsets:
#	150
#	16824
#	38598
#	56785
#	88605
#	112662
#	145173
#	165927
#	180216
#	197894
#	219025
#	242811
#	269363
#	293063
#
# Disc length: 4198 seconds
#
# Revision: 2
# Processed by: cddbd v1.5.2PL0 Copyright (c) Steve Scherf et al.
# Submitted via: dBpowerAMP V4.0
#
DISCID=af10640e
DTITLE=Various Artist - Basil's Bar Blues
DYEAR=2003
DGENRE=Blues
TTITLE0=Big Jay McNeely - Big Fat Mama
TTITLE1=Larry Garner - Big Legged Woman
TTITLE2=Steve 'Big Man' Clayton - Flip, Flop and Fly
TTITLE3=Dana Gillespie - Up Your Sleeve
TTITLE4=Big Joe Louis - Catfish Blues
TTITLE5=Ian Siegal - Mannish Boy
TTITLE6=Matt Schofiels - Prison of Love
TTITLE7=Dana Gillespie - Tough Love
TTITLE8=Earl Green - Sugar Coated Love
TTITLE9=Dana Gillespie - Ten Ton Blocks
TTITLE10=Ian Siegal - Got My Mojo Working
TTITLE11=Dana Gillespie - No One
TTITLE12=Larry Garner - Don't Buy No Whiskey
TTITLE13=Big Jay McNeely - Get Up and Boogie
EXTD=
EXTT0=
EXTT1=
EXTT2=
EXTT3=
EXTT4=
EXTT5=
EXTT6=
EXTT7=
EXTT8=
EXTT9=
EXTT10=
EXTT11=
EXTT12=
EXTT13=
PLAYORDER=
